<svg class="svg-icon" style="width: 1em; height: 1em;vertical-align: middle;fill: #fff;overflow: hidden;" viewBox="0 0 1024 1024" version="1.1" xmlns="http://www.w3.org/2000/svg"><path d="M683.52 442.88c-10.24-10.24-25.6-10.24-35.84 0L588.8 501.76l-56.32-56.32c-10.24-10.24-25.6-10.24-35.84 0-10.24 10.24-10.24 25.6 0 35.84l56.32 56.32-58.88 58.88c-10.24 10.24-10.24 25.6 0 35.84 10.24 10.24 25.6 10.24 35.84 0l58.88-58.88 56.32 56.32c10.24 10.24 25.6 10.24 35.84 0 10.24-10.24 10.24-25.6 0-35.84L624.64 537.6l58.88-58.88c10.24-10.24 10.24-25.6 0-35.84zM819.2 256H360.96c-7.68 0-15.36 2.56-20.48 7.68l-230.4 253.44c-5.12 5.12-7.68 12.8-7.68 20.48 0 7.68 2.56 15.36 7.68 20.48l230.4 253.44c5.12 5.12 12.8 7.68 17.92 7.68h460.8c56.32 0 102.4-46.08 102.4-102.4V358.4c0-56.32-46.08-102.4-102.4-102.4z m51.2 460.8c0 28.16-23.04 51.2-51.2 51.2H371.2l-209.92-230.4 207.36-230.4H819.2c28.16 0 51.2 23.04 51.2 51.2v358.4z"  /></svg>